<svg xmlns="http://www.w3.org/2000/svg" version="1.1" xmlns:xlink="http://www.w3.org/1999/xlink" xmlns:svgjs="http://svgjs.dev/svgjs" width="100%" height="100%" viewBox="0 0 1000 600"><rect width="1000" height="600" x="0" y="0" fill="#b6d8c0 "/><g><circle r="166.66666666666666" cx="392.9520823160807" cy="415.1742886835659" fill="#ddaa88" transform="matrix(0.5523998554985274,0,0,0.5523998554985273,0,70.65780400807321)"/><path d="M336.85861713814717 340.17429830278786L336.85861713814717 340.17429830278786Q341.2569066375464 340.388104042342 347.5489041158537 340.6324534589753Q353.8103579170818 340.8462591985294 359.7358312704391 340.8462591985294L359.7358312704391 340.8462591985294Q365.01988740513406 340.8462591985294 370.303943539829 340.7240844902128Q375.5879996745239 340.6324534589753 380.8415121321397 340.51027875065864Q386.12556826683465 340.388104042342 391.1958186619754 340.388104042342L391.1958186619754 340.388104042342Q403.9325320039857 340.388104042342 414.5006442733756 343.045403948229Q425.06875654276547 345.672160177037 431.5440160835477 352.6055748740066Q438.0192756243299 359.53898957097624 438.0192756243299 372.5200523296199L438.0192756243299 372.5200523296199Q438.0192756243299 386.5701437860341 429.4670460421647 396.5884698679991Q420.88427278292033 406.60679594996407 406.1316767536854 408.80594069966367L406.1316767536854 408.80594069966367Q417.79936139792505 409.4473579183261 427.5733380632567 413.08205549074626Q437.37785840566755 416.7167530631665 443.3033317590249 424.6275654266693Q449.25934878946134 432.53837779017215 449.25934878946134 446.1914014445573L449.25934878946134 446.1914014445573Q449.25934878946134 458.04234815127194 443.8531179464498 467.93849952492025Q438.47743078051735 477.83465089856855 426.8097461362777 483.66849322068845Q415.17260516911716 489.5023355428082 396.47987479667034 489.5023355428082L396.47987479667034 489.5023355428082Q390.3100520266797 489.5023355428082 381.849453475752 489.5023355428082Q373.3888549248243 489.5023355428082 364.59227592602576 489.6245102511249Q355.7956969272273 489.7161412823624 348.3124960428327 489.838315990679Q340.8292951584382 489.9299470219165 336.64481139859305 490.1742964385498L336.64481139859305 490.1742964385498Q336.64481139859305 487.08938505355445 336.85861713814717 484.76806559553825Q337.1029665547805 482.47728981460114 337.74438377344285 480.7057565440098L337.74438377344285 480.7057565440098Q343.70040080387935 480.2781450649014 346.9991179284288 478.5066117943101Q350.29783505297826 476.73507852371876 351.7028441986197 472.245157993082Q353.1383970213402 467.7246937853661 353.1383970213402 459.14192052612174L353.1383970213402 459.14192052612174L353.1383970213402 368.763180048883Q353.1383970213402 361.27997916448845 351.8250189069363 357.33984482127664Q350.5116407925324 353.3691668009856 347.2129236679829 351.6281772074734Q343.91420654343347 349.85664393688205 337.958189512997 349.64283819732793L337.958189512997 349.64283819732793Q337.3167722943346 347.87130492673657 337.1029665547805 345.33617972916613Q336.85861713814717 342.8315982086749 336.85861713814717 340.17429830278786ZM370.73155501893723 351.84198294702753L373.81646640393257 348.54326582247813L373.81646640393257 459.14192052612174Q373.81646640393257 468.1828489415535 375.46582496620726 472.6727694721903Q377.11518352848196 477.19323367990614 381.6356477361979 478.6287865026268Q386.12556826683465 480.0337956482682 394.28073004697075 480.0337956482682L394.28073004697075 480.0337956482682Q410.52996625308464 480.0337956482682 418.13534184579584 471.7870028368946Q425.7101737614279 463.540210025521 425.7101737614279 449.24576915247343L425.7101737614279 449.24576915247343Q425.7101737614279 438.9220062997169 421.52569000158275 432.44674675893464Q417.37174991881676 425.94094354107324 410.4383352218471 422.55059538528633Q403.5049205248775 419.1297035524202 395.2581277135039 417.8163254380163Q387.01133490213033 416.5029473236124 378.8867167990733 416.5029473236124L378.8867167990733 416.5029473236124L371.1897101751247 416.5029473236124L371.1897101751247 407.0344074290723L380.62770639258554 407.0344074290723Q394.9221472656331 407.0344074290723 402.4053481500277 403.06372940878134Q409.8885490344222 399.1235950655695 412.72911100278424 392.6177918477081Q415.6002166482254 386.1425323069259 415.6002166482254 379.11748657871874L415.6002166482254 379.11748657871874Q415.6002166482254 367.6636076740332 410.4383352218471 361.4021538728051Q405.27645379546885 355.140700071577 397.67107820275766 352.6055748740066Q390.0962462871256 350.07044967643617 382.8268511422852 350.07044967643617L382.8268511422852 350.07044967643617Q379.9862891739232 350.07044967643617 377.2373582367986 350.406430124307Q374.48842729967413 350.74241057217773 370.73155501893723 351.84198294702753L370.73155501893723 351.84198294702753Z " fill="#b6d8c0 " transform="matrix(0.5523998554985274,0,0,0.5523998554985273,0,70.65780400807321)"/><path d="M643.1580445813793 344.41126475918514L643.1580445813793 344.41126475918514Q647.3949999712737 344.61722786841614 653.4562000429285 344.8526142789658Q659.4879768132644 345.0585773881968 665.1960972690945 345.0585773881968L665.1960972690945 345.0585773881968Q670.2863283972315 345.0585773881968 675.3765595253687 344.940884182922Q680.4667906535059 344.8526142789658 685.5275984803243 344.734921073691Q690.6178296084615 344.61722786841614 695.5020976273677 344.61722786841614L695.5020976273677 344.61722786841614Q707.7716142772705 344.61722786841614 717.9520765335449 347.17705508314407Q728.1325387898191 349.70745899655327 734.370278669386 356.3865483959009Q740.6080185489529 363.06563779524845 740.6080185489529 375.57054085570104L740.6080185489529 375.57054085570104Q740.6080185489529 389.1052594623085 732.3694941797137 398.75610229484596Q724.1015465091556 408.40694512738344 709.8900919722178 410.5254228223307L709.8900919722178 410.5254228223307Q721.1297930759656 411.1433121500237 730.5452494979535 414.6446850069504Q739.9901292212601 418.1460578638771 745.6982496770902 425.7666929054235Q751.435793434239 433.38732794696983 751.435793434239 446.5395436364341L751.435793434239 446.5395436364341Q751.435793434239 457.95578454809424 746.2278691008269 467.4889341753569Q741.0493680687337 477.0220838026196 729.8096669649857 482.6419343544935Q718.5993891625565 488.2617849063675 700.5923287555048 488.2617849063675L700.5923287555048 488.2617849063675Q694.648821889125 488.2617849063675 686.4985674238418 488.2617849063675Q678.3483129585586 488.2617849063675 669.8744021787695 488.37947811164236Q661.4004913989806 488.4677480155985 654.1917825758962 488.58544122087335Q646.9830737528118 488.6737111248294 642.9520814721482 488.90909753537915L642.9520814721482 488.90909753537915Q642.9520814721482 485.9373441021893 643.1580445813793 483.70117320196715Q643.3934309919289 481.49442560306375 644.0113203196219 479.78787412657846L644.0113203196219 479.78787412657846Q649.7488640767707 479.3759479081165 652.9265806191916 477.6693964316312Q656.1042971616125 475.9628449551459 657.4577690222732 471.6376196612953Q658.8406641842527 467.2829710661259 658.8406641842527 459.0150233955679L658.8406641842527 459.0150233955679L658.8406641842527 371.9514747934995Q658.8406641842527 364.74276597041506 657.5754622275481 360.9471601003012Q656.3102602708434 357.12213092886867 653.1325437284225 355.4450027537021Q649.9548271860017 353.7384512772168 644.2172834288529 353.53248816798583L644.2172834288529 353.53248816798583Q643.5993941011599 351.82593669150054 643.3934309919289 349.3838026820474Q643.1580445813793 346.9710919739131 643.1580445813793 344.41126475918514ZM675.7884857438307 355.65096586293305L678.7602391770206 352.4732493205122L678.7602391770206 459.0150233955679Q678.7602391770206 467.7243205859066 680.3490974482311 472.04954587975726Q681.9379557194414 476.4041944749266 686.2926043146108 477.7870896369061Q690.6178296084615 479.1405614975668 698.4738510605575 479.1405614975668L698.4738510605575 479.1405614975668Q714.1270473621123 479.1405614975668 721.4534493904715 471.1962701415146Q728.750428117512 463.2519787854624 728.750428117512 449.48187376830526L728.750428117512 449.48187376830526Q728.750428117512 439.5367979225806 724.7194358368486 433.2990580430137Q720.7178668575037 427.03189486212807 714.0387774581561 423.7659084157511Q707.3596880588086 420.47049866805537 699.4153967027563 419.20529671135074Q691.4711053467041 417.9400947546461 683.6445071959267 417.9400947546461L683.6445071959267 417.9400947546461L676.2298352636114 417.9400947546461L676.2298352636114 408.8188713458454L685.3216353710934 408.8188713458454Q699.0917403882504 408.8188713458454 706.3004492113348 404.99384217441286Q713.5091580344193 401.1982363042991 716.2455250570595 394.93107312341346Q719.0113153810184 388.6933332438465 719.0113153810184 381.9259739405428L719.0113153810184 381.9259739405428Q719.0113153810184 370.89223594602583 714.0387774581561 364.8604591756899Q709.0662395352938 358.82868240535396 701.7398375069346 356.3865483959009Q694.4428587798941 353.94441438644776 687.4401130660406 353.94441438644776L687.4401130660406 353.94441438644776Q684.7037460434003 353.94441438644776 682.0556489247163 354.2680707009536Q679.4075518060322 354.59172701545947 675.7884857438307 355.65096586293305L675.7884857438307 355.65096586293305ZM770.9140189072261 488.90909753537915L770.9140189072261 488.90909753537915Q770.9140189072261 486.7906198404319 771.1199820164572 484.3484858309788Q771.3259451256881 481.90635182152573 771.9732577547 479.78787412657846L771.9732577547 479.78787412657846Q780.4471685344888 479.78787412657846 783.5071918716349 475.8745750511898Q786.5966385100996 471.96127597580113 786.5966385100996 461.3688875010648L786.5966385100996 461.3688875010648L786.5966385100996 419.41125982058173Q786.5966385100996 414.32102869244454 785.625669566582 411.05504224606756Q784.6841239243834 407.75963249837184 781.3004442727315 406.05308102188656Q777.9167646210797 404.37595284671994 770.7080557979953 404.37595284671994L770.7080557979953 404.37595284671994Q770.7080557979953 402.05151204254173 771.1199820164572 400.13899745682545Q771.561331536238 398.22648287110917 772.6205703837115 396.5199313946239L772.6205703837115 396.5199313946239Q775.7982869261323 396.5199313946239 781.6241005872373 395.46069254715024Q787.4499142483423 394.4014536996766 792.9520715949413 392.72432552451005Q798.4542289415406 391.01777404802476 800.9846328549497 389.3406458728582L800.9846328549497 389.3406458728582Q802.897147440666 389.9585352005511 804.2800426026454 391.8710497862674Q805.662937764625 393.7835643719837 805.662937764625 397.8145566526472L805.662937764625 397.8145566526472L805.662937764625 461.3688875010648Q805.662937764625 471.96127597580113 808.5169979925399 475.8745750511898Q811.3710582204551 479.78787412657846 818.1678408250775 479.78787412657846L818.1678408250775 479.78787412657846Q818.7857301527704 481.90635182152573 818.9916932620015 484.67214214548466Q819.2270796725511 487.40850916812485 819.2270796725511 488.90909753537915L819.2270796725511 488.90909753537915Q815.6080136103494 488.6737111248294 811.577021329686 488.58544122087335Q807.5754523503413 488.4677480155985 803.4267668644029 488.37947811164236Q799.307504679783 488.2617849063675 795.2765123991196 488.2617849063675L795.2765123991196 488.2617849063675Q791.2455201184562 488.2617849063675 786.9202948246054 488.37947811164236Q782.5656462294362 488.4677480155985 778.5346539487725 488.58544122087335Q774.5036616681091 488.6737111248294 770.9140189072261 488.90909753537915ZM794.4232366608769 365.3900785994267L794.4232366608769 365.3900785994267Q789.1270424235088 365.3900785994267 785.5373996626261 361.8004358385439Q781.9183336004244 358.1813697763423 781.9183336004244 353.0911386482052L781.9183336004244 353.0911386482052Q781.9183336004244 347.38301819237506 785.7433627718569 343.7933754314922Q789.5683919432895 340.17430936929065 794.4232366608769 340.17430936929065L794.4232366608769 340.17430936929065Q800.1607804180258 340.17430936929065 803.6327299736338 343.7933754314922Q807.1341028305606 347.38301819237506 807.1341028305606 353.0911386482052L807.1341028305606 353.0911386482052Q807.1341028305606 357.9754066671113 803.4267668644029 361.682742633269Q799.719430898245 365.3900785994267 794.4232366608769 365.3900785994267ZM880.2215833062407 490.1742994920838L880.2215833062407 490.1742994920838Q865.1862763323791 490.1742994920838 855.2412004866544 483.37751688746135Q845.266701339611 476.6101575841576 840.2941634167487 465.0762234672226Q835.3216254938866 453.51286604896876 835.3216254938866 439.74276103181165L835.3216254938866 439.74276103181165Q835.3216254938866 426.1786191238854 840.6178197312547 414.76237821222526Q845.9140139686228 403.3167139992463 855.7708199103913 396.3139682853929Q865.598202550841 389.3406458728582 879.1623444587672 389.3406458728582L879.1623444587672 389.3406458728582Q892.9324494759244 389.3406458728582 901.3180903517573 395.25472943791925Q909.6743079262715 401.1982363042991 913.7935701108911 411.1433121500237Q917.9422555968295 421.117811297067 918.7955313350722 433.1813648377389L918.7955313350722 433.1813648377389Q917.9422555968295 437.4183202276334 915.6178147926512 440.3900736608233L915.6178147926512 440.3900736608233Q911.9987487304497 440.3900736608233 904.7900399073653 440.3900736608233Q897.6107543855996 440.3900736608233 888.4895309767987 440.47834356477944Q879.368307567998 440.5960367700543 869.8351579407356 440.9196930845601Q860.3020083134729 441.2433493990659 851.8280975336838 441.6552756175279L851.8280975336838 441.6552756175279L851.8280975336838 430.85692403356063L896.757478647357 430.85692403356063Q896.757478647357 416.8808559071725 891.6672475192197 408.1715587168338Q886.5770163910827 399.49168482781374 877.2498298730509 399.49168482781374L877.2498298730509 399.49168482781374Q872.1890220462324 399.49168482781374 867.3047540273262 402.5811314662785Q862.4204860084201 405.64115480342457 859.2427694659993 413.37948305024577Q856.0650529235784 421.117811297067 856.0650529235784 435.2998425326861L856.0650529235784 435.2998425326861Q856.0650529235784 445.68626789819143 858.7131500422624 455.5430738399599Q861.3612471609465 465.37045648040964 868.040336560294 471.84358277052627Q874.7194259596417 478.3167090606429 887.0183659108632 478.3167090606429L887.0183659108632 478.3167090606429Q893.991688323398 478.3167090606429 900.7884709280204 475.13899251822204Q907.5558302313241 471.96127597580113 912.8520244686922 466.01776910942135L912.8520244686922 466.01776910942135Q914.5585759451776 466.871044847664 916.1474342163881 468.87182933733635Q917.7362924875983 470.9020371283275 917.9422555968295 472.57916530349405L917.9422555968295 472.57916530349405Q910.733546773745 482.1123149307567 901.3180903517573 486.1433072114203Q891.8732106284508 490.1742994920838 880.2215833062407 490.1742994920838ZM969.8449591230371 398.63840908957116L950.778659868512 442.9204775742325L950.778659868512 419.41125982058173Q950.778659868512 414.32102869244454 949.7194210210382 411.1433121500237Q948.6601821735646 407.9655956076028 945.2765025219128 406.2884674324362Q941.8633995689422 404.58191595595093 934.8900771564074 404.37595284671994L934.8900771564074 404.37595284671994Q934.8900771564074 402.05151204254173 935.3020033748694 400.13899745682545Q935.7433528946501 398.22648287110917 936.8025917421237 396.5199313946239L936.8025917421237 396.5199313946239Q943.3639879361965 396.1080051761619 951.8378987159856 393.9895274812146Q960.3118094957745 391.8710497862674 965.1666542133621 389.3406458728582L965.1666542133621 389.3406458728582Q967.0791687990782 389.9585352005511 968.4620639610578 391.98874299154227Q969.8449591230371 393.9895274812146 969.8449591230371 398.63840908957116L969.8449591230371 398.63840908957116ZM1032.5460142332122 424.91341716718085L1032.5460142332122 461.3688875010648Q1032.5460142332122 472.37320219426306 1035.6060375703582 476.0805381604208Q1038.695484208823 479.78787412657846 1045.0509172936647 479.78787412657846L1045.0509172936647 479.78787412657846Q1045.6688066213576 481.70038871229474 1045.9041930319074 483.818866407242Q1046.1101561411383 485.9373441021893 1046.1101561411383 488.90909753537915L1046.1101561411383 488.90909753537915Q1041.4318512314633 488.4677480155985 1035.517767666402 488.37947811164236Q1029.5742608000223 488.2617849063675 1023.0128646059495 488.2617849063675L1023.0128646059495 488.2617849063675Q1018.775909216055 488.2617849063675 1014.1270276076987 488.37947811164236Q1009.4487226980234 488.4677480155985 1005.3294605134038 488.58544122087335Q1001.1807750274654 488.6737111248294 997.7970953758136 488.90909753537915L997.7970953758136 488.90909753537915Q997.7970953758136 485.9373441021893 998.0030584850444 483.70117320196715Q998.2384448955941 481.49442560306375 998.8563342232871 479.78787412657846L998.8563342232871 479.78787412657846Q1006.4769692648335 479.78787412657846 1009.9783421217603 475.8745750511898Q1013.4797149786868 471.96127597580113 1013.4797149786868 461.3688875010648L1013.4797149786868 461.3688875010648L1013.4797149786868 429.15037255707534Q1013.4797149786868 414.11506558321355 1007.9775576320878 408.7011781405706Q1002.4754002854886 403.3167139992463 993.7661030951499 403.3167139992463L993.7661030951499 403.3167139992463Q988.2639457485509 403.3167139992463 982.7617884019517 406.818086856173Q977.2596310553527 410.29003641178105 973.552295089195 418.02836465860224Q969.8449591230371 425.7666929054235 969.8449591230371 438.683522184338L969.8449591230371 438.683522184338L969.8449591230371 461.3688875010648Q969.8449591230371 471.96127597580113 973.0226756654581 475.8745750511898Q976.2003922078791 479.78787412657846 984.4683398784371 479.78787412657846L984.4683398784371 479.78787412657846Q985.0862292061299 481.70038871229474 985.2921923153608 483.818866407242Q985.5275787259106 485.9373441021893 985.5275787259106 488.90909753537915L985.5275787259106 488.90909753537915Q982.5558252927208 488.6737111248294 978.3188699028262 488.58544122087335Q974.0819145129317 488.4677480155985 969.4036096032564 488.37947811164236Q964.7547279949001 488.2617849063675 960.3118094957745 488.2617849063675L960.3118094957745 488.2617849063675Q956.0748541058801 488.2617849063675 951.3965491962049 488.37947811164236Q946.7476675878484 488.4677480155985 942.5107121979538 488.58544122087335Q938.2737568080593 488.6737111248294 935.0960402656385 488.90909753537915L935.0960402656385 488.90909753537915Q935.0960402656385 485.9373441021893 935.3020033748694 483.70117320196715Q935.5079664841005 481.49442560306375 936.1552791131121 479.78787412657846L936.1552791131121 479.78787412657846Q944.4232267836701 479.78787412657846 947.600943326091 475.8745750511898Q950.778659868512 471.96127597580113 950.778659868512 461.3688875010648L950.778659868512 461.3688875010648L950.778659868512 419.41125982058173L969.8449591230371 398.63840908957116Q969.8449591230371 401.1982363042991 969.6389960138063 404.37595284671994Q969.4036096032564 407.55366938914085 968.3443707557828 411.1433121500237L968.3443707557828 411.1433121500237Q968.9916833847947 410.08407330255005 969.6389960138063 408.7011781405706Q970.2568853414991 407.34770627990986 971.5220872982038 405.64115480342457L971.5220872982038 405.64115480342457Q975.1411533604053 400.7568867845184 983.0854447164575 395.5783857524251Q991.0297360725096 390.3998847203318 1002.240013874939 390.3998847203318L1002.240013874939 390.3998847203318Q1010.3019984362661 390.3998847203318 1017.1870509448445 393.6658711667088Q1024.072103453423 396.96128091440454 1028.3090588433176 404.4642227506761Q1032.5460142332122 411.99658788826633 1032.5460142332122 424.91341716718085L1032.5460142332122 424.91341716718085ZM1069.8253370040202 425.9726560146545L1129.790025091555 425.9726560146545Q1129.790025091555 429.35633566630634 1129.1427124625434 433.06367163246404Q1128.5248231348503 436.77100759862174 1127.024234767596 439.74276103181165L1127.024234767596 439.74276103181165Q1121.316114311766 439.74276103181165 1113.2541297504388 439.86045423708646Q1105.2215684904304 439.9487241410426 1096.5122713000917 440.06641734631745Q1087.8323974110717 440.1841105515923 1080.0057992602945 440.27238045554844Q1072.1497778081985 440.3900736608233 1066.4416573523683 440.5960367700543L1066.4416573523683 440.5960367700543Q1066.4416573523683 437.0063940091714 1067.383202994567 432.85770852323304Q1068.3541719380846 428.73844633861336 1069.8253370040202 425.9726560146545L1069.8253370040202 425.9726560146545ZM1217.706849431866 396.75531780517355L1217.706849431866 396.75531780517355Q1217.500886322635 401.816125631992 1217.3831931173602 407.55366938914085Q1217.2654999120853 413.26178984497096 1218.118775650328 418.7639471915701L1218.118775650328 418.7639471915701Q1216.0002979553808 420.0585724495934 1213.2639309327405 420.6764617772863Q1210.4981406087816 421.32377440629796 1207.5263871755917 421.32377440629796L1207.5263871755917 421.32377440629796Q1207.1144609571297 415.3802675399182 1204.025014318665 410.08407330255005Q1200.964990981519 404.7878790651819 1195.8747598533819 401.40419941353Q1190.7845287252446 398.0205197618782 1183.8112063127098 398.0205197618782L1183.8112063127098 398.0205197618782Q1177.2498101186372 398.0205197618782 1173.3070877419298 401.1982363042991Q1169.393788666541 404.37595284671994 1169.393788666541 409.67214708408807L1169.393788666541 409.67214708408807Q1169.393788666541 413.26178984497096 1170.9826469377515 416.02758016892983Q1172.571505208962 418.7639471915701 1177.985392651605 421.8533938300348Q1183.369856792929 424.91341716718085 1194.6095578966772 429.35633566630634L1194.6095578966772 429.35633566630634Q1206.0552221096561 433.5932910562008 1212.6166183037287 437.8302464460953Q1219.1780144978015 442.06720183598986 1221.9438048217605 447.363396073358Q1224.6801718444008 452.6595903107261 1224.6801718444008 460.30964865359124L1224.6801718444008 460.30964865359124Q1224.6801718444008 469.1954856518422 1219.6193640175823 475.9628449551459Q1214.529132889445 482.7596275597684 1205.7315657951503 486.4669635259261Q1196.9339987008555 490.1742994920838 1185.9296840076572 490.1742994920838L1185.9296840076572 490.1742994920838Q1173.2188178379736 490.1742994920838 1165.6864527003834 488.14409170109263Q1158.183510864112 486.1433072114203 1150.9748020410275 482.3182780399877L1150.9748020410275 482.3182780399877Q1151.3867282594895 478.93459838833587 1151.5044214647644 474.07975367074835Q1151.5926913687204 469.1954856518422 1151.5926913687204 464.31121763293606Q1151.5926913687204 459.4563729153486 1151.1807651502584 456.0726932636967L1151.1807651502584 456.0726932636967Q1152.8873166267438 454.7780680056734 1155.9473399638898 454.2484485819366Q1159.0073633010356 453.71882915819975 1162.1850798434566 453.71882915819975L1162.1850798434566 453.71882915819975Q1163.891631319942 467.07700795689493 1170.4530275140148 473.6384041509677Q1177.0144237080874 480.19980034504044 1188.0481617026044 480.19980034504044L1188.0481617026044 480.19980034504044Q1196.7280355916243 480.19980034504044 1201.4946104052558 476.4041944749266Q1206.261185218887 472.57916530349405 1206.261185218887 466.66508173843295L1206.261185218887 466.66508173843295Q1206.261185218887 462.84005256700044 1204.4663638384457 460.0742622430415Q1202.671542458004 457.3378952204013 1197.7872744390982 454.5721048964424Q1192.903006420192 451.8357378738022 1183.369856792929 448.01070870236964L1183.369856792929 448.01070870236964Q1171.9536158812691 443.36182709401317 1165.0685633726905 439.33083481334967Q1158.183510864112 435.2998425326861 1155.0940642256471 429.797685186087Q1152.034040888501 424.2955278394879 1152.034040888501 415.82161705969884L1152.034040888501 415.82161705969884Q1152.034040888501 409.0248344550764 1155.417720540153 404.0522965322141Q1158.8014001918048 399.0797586093518 1164.2152876344478 395.7843488616561Q1169.5997517757721 392.51836241527906 1175.749221751383 390.92950414406863Q1181.8986917269935 389.3406458728582 1187.194885964362 389.3406458728582L1187.194885964362 389.3406458728582Q1196.7280355916243 389.3406458728582 1203.9367444147088 391.22373715725575Q1211.1454532377932 393.13625174297204 1217.706849431866 396.75531780517355ZM1277.2301879996203 490.1742994920838L1277.2301879996203 490.1742994920838Q1264.7252849391675 490.1742994920838 1258.6935081688316 483.70117320196715Q1252.6617313984957 477.25747021316926 1252.6617313984957 462.84005256700044L1252.6617313984957 462.84005256700044L1252.6617313984957 405.4351916941936Q1249.4840148560747 404.37595284671994 1246.1003352044231 403.64037031375216Q1242.6872322514523 402.87536447946565 1237.3910380140842 402.66940137023465L1237.3910380140842 402.66940137023465Q1237.3910380140842 399.93303434759446 1237.832387533865 397.9028265566033Q1238.244313752327 395.9020420669309 1239.3035525998005 393.342214852203L1239.3035525998005 393.342214852203L1252.6617313984957 393.342214852203L1252.6617313984957 365.3900785994267Q1256.8986867883903 364.3308397519531 1261.0179489730099 362.00639894777487Q1265.1666344589482 359.6819581435966 1268.3443510013692 356.9161678196377L1268.3443510013692 356.9161678196377Q1270.4628286963166 357.7694435578803 1271.0807180240095 359.4465717330469Q1271.728030653021 361.15312320953217 1271.728030653021 367.920482512836L1271.728030653021 367.920482512836L1271.728030653021 393.342214852203L1299.2682406873355 393.342214852203Q1299.2682406873355 395.46069254715024 1298.8268911675545 397.9028265566033Q1298.4149649490928 400.34496056605644 1297.355726101619 402.66940137023465L1297.355726101619 402.66940137023465Q1289.7350910600726 402.87536447946565 1283.3796579752309 403.64037031375216Q1277.0242248903892 404.37595284671994 1271.728030653021 405.4351916941936L1271.728030653021 405.4351916941936L1271.728030653021 458.39713406787496Q1271.728030653021 465.37045648040964 1273.1991957189566 469.93106818481Q1274.699784086211 474.49167988921033 1277.436151108851 476.6101575841576Q1280.2019414328101 478.7286352791049 1283.997547302924 478.7286352791049L1283.997547302924 478.7286352791049Q1288.4698891033681 478.7286352791049 1291.735875549745 477.46343332240025Q1295.031285297441 476.1982313656956 1298.0030387306308 473.6384041509677L1298.0030387306308 473.6384041509677Q1300.739405753271 476.8161206933886 1301.1807552730515 480.6411498648211L1301.1807552730515 480.6411498648211Q1297.7676523200812 484.67214214548466 1290.8825998115026 487.40850916812485Q1283.997547302924 490.1742994920838 1277.2301879996203 490.1742994920838ZM1380.182319313793 490.1742994920838L1380.182319313793 490.1742994920838Q1377.8578785096147 489.11506064461014 1376.4749833476353 486.3492703206512Q1375.092088185656 483.612903298011 1375.092088185656 477.6693964316312L1375.092088185656 477.6693964316312Q1375.092088185656 475.75688184591496 1375.3274745962055 473.1087847272309Q1375.5334377054364 470.4606876085468 1376.1513270331295 468.3422099135996L1376.1513270331295 468.3422099135996L1376.5926765529102 468.3422099135996Q1375.9453639238986 471.72588956525146 1373.7386163249953 475.66861194195883Q1371.502445424773 479.58191101734747 1367.91280266389 482.5536644505374L1367.91280266389 482.5536644505374Q1364.2937366016886 485.7313809929583 1358.7915792550893 487.73216548263065Q1353.2894219084903 489.7329499723031 1345.4334004563943 489.7329499723031L1345.4334004563943 489.7329499723031Q1332.1046449590178 489.7329499723031 1325.1018992451645 483.70117320196715Q1318.1285768326297 477.6693964316312 1318.1285768326297 467.2829710661259L1318.1285768326297 467.2829710661259Q1318.1285768326297 459.0150233955679 1322.0418759080185 453.18920973446296Q1325.955174983407 447.363396073358 1332.192914862974 443.4500969979693Q1338.4600780438595 439.5367979225806 1345.7570567709001 437.2123571184024Q1353.0834587992595 434.8879163142242 1360.0567812117943 433.5932910562008Q1367.0595269256473 432.3280890994962 1372.3557211630157 431.4748133612536L1372.3557211630157 431.4748133612536Q1372.3557211630157 422.7949394722336 1372.03206484851 417.9400947546461Q1371.7084085340039 413.05582673573997 1370.7668628918052 410.2017665078249Q1369.7958939482878 407.34770627990986 1367.91280266389 405.2292285849626L1367.91280266389 405.2292285849626Q1365.3529754491624 402.05151204254173 1362.0869890027852 400.46265377133125Q1358.7915792550893 398.8737955001208 1354.760586974426 398.8737955001208L1354.760586974426 398.8737955001208Q1347.7872645618913 398.8737955001208 1343.7562722812277 403.1990207939715Q1339.7252800005642 407.55366938914085 1338.0187285240788 413.26178984497096Q1336.3416003489124 418.99933360211975 1336.1356372396813 423.44225210124523L1336.1356372396813 423.44225210124523Q1333.7817731341843 423.44225210124523 1330.3098235785765 423.11859578673943Q1326.8084507216497 422.7949394722336 1325.1018992451645 421.94166373399094L1325.1018992451645 421.94166373399094Q1325.543248764945 416.6454694966228 1325.3078623543954 410.08407330255005Q1325.1018992451645 403.5226771084773 1324.0426603976907 398.8737955001208L1324.0426603976907 398.8737955001208Q1332.722534286711 394.4014536996766 1342.3733771192483 391.8710497862674Q1352.0242199517857 389.3406458728582 1360.0567812117943 389.3406458728582L1360.0567812117943 389.3406458728582Q1367.91280266389 389.3406458728582 1373.5032299144455 391.54739347176155Q1379.1230804663194 393.7835643719837 1382.5067601179712 397.3732071328665L1382.5067601179712 397.3732071328665Q1388.0383407658892 402.66940137023465 1389.7154689410556 411.2610053552985Q1391.422020417541 419.82318603904366 1391.422020417541 434.0346405759815L1391.422020417541 434.0346405759815L1391.422020417541 457.3378952204013Q1391.422020417541 463.2519787854624 1392.3635660597397 466.75335164238913Q1393.3345350032573 470.25472449931584 1396.0709020258973 471.84358277052627Q1398.8366923498563 473.43244104173675 1404.5448128056864 473.8443672601987L1404.5448128056864 473.8443672601987Q1404.5448128056864 475.9628449551459 1404.3388496964556 478.61094207383Q1404.1328865872247 481.2590391925141 1403.279610848982 483.612903298011L1403.279610848982 483.612903298011Q1397.9834166116138 483.818866407242 1391.510290321497 485.61368778768343Q1385.0665873326993 487.40850916812485 1380.182319313793 490.1742994920838ZM1351.376907322774 478.08132265009317L1351.376907322774 478.08132265009317Q1356.0257889311306 478.08132265009317 1360.9100569500367 475.0212993129471Q1365.7943249689429 471.96127597580113 1369.06031141532 465.37045648040964Q1372.3557211630157 458.80906028633694 1372.3557211630157 448.21667181160063L1372.3557211630157 448.21667181160063L1372.3557211630157 440.1841105515923Q1367.0595269256473 440.8019998792853 1361.1160200592676 441.9789319320337Q1355.2019364942066 443.12644068346344 1350.1117053660696 445.48030478896044Q1345.0214742379324 447.8047455931387 1341.8437576955116 451.92400777775833Q1338.6660411530906 456.0726932636967 1338.6660411530906 463.04601567623143L1338.6660411530906 463.04601567623143Q1338.6660411530906 470.9020371283275 1342.4910703245232 474.49167988921033Q1346.286676194637 478.08132265009317 1351.376907322774 478.08132265009317ZM1455.5942405936516 440.1841105515923L1455.5942405936516 457.13193211117033Q1455.5942405936516 466.2237322186523 1457.506755179368 470.9903070322836Q1459.419269765084 475.75688184591496 1463.6562251549785 477.5517032263564Q1467.893180544873 479.3759479081165 1474.454576738946 479.78787412657846L1474.454576738946 479.78787412657846Q1475.1018893679575 481.49442560306375 1475.3078524771886 483.70117320196715Q1475.5138155864195 485.9373441021893 1475.5138155864195 488.90909753537915L1475.5138155864195 488.90909753537915Q1472.3360990439987 488.6737111248294 1468.010873750148 488.58544122087335Q1463.6562251549785 488.4677480155985 1458.7719571360724 488.37947811164236Q1453.917112418485 488.2617849063675 1448.826881290348 488.2617849063675L1448.826881290348 488.2617849063675Q1441.4122093580322 488.2617849063675 1433.2619548927491 488.37947811164236Q1425.111700427466 488.4677480155985 1420.8747450375718 488.90909753537915L1420.8747450375718 488.90909753537915Q1420.8747450375718 485.9373441021893 1421.0807081468026 483.70117320196715Q1421.2866712560335 481.49442560306375 1421.933983885045 479.78787412657846L1421.933983885045 479.78787412657846Q1427.6421043408754 479.3759479081165 1430.8198208832962 477.7870896369061Q1433.997537425717 476.1982313656956 1435.2627393824216 472.25550898898825Q1436.5279413391263 468.3422099135996 1436.5279413391263 461.3688875010648L1436.5279413391263 461.3688875010648L1436.5279413391263 440.1841105515923L1455.5942405936516 440.1841105515923ZM1452.0045978327687 423.23628899201424L1455.5942405936516 426.1786191238854L1455.5942405936516 442.9204775742325L1436.5279413391263 442.9204775742325L1436.5279413391263 419.41125982058173L1455.5942405936516 398.63840908957116Q1455.5942405936516 405.84711791265556 1454.329038636947 411.6729315737605Q1453.0638366802423 417.49874523486545 1452.0045978327687 423.23628899201424L1452.0045978327687 423.23628899201424ZM1455.5942405936516 436.77100759862174L1450.9453589852951 424.50149094871887Q1453.2697997894734 418.5579840823391 1454.5350017461778 414.76237821222526Q1455.8296270042013 410.9373490407927 1457.3007920701368 408.40694512738344L1457.3007920701368 408.40694512738344Q1461.9496736784934 400.9922731950681 1468.305106763335 396.1080051761619Q1474.6605398481768 391.22373715725575 1482.928487518735 391.22373715725575L1482.928487518735 391.22373715725575Q1490.9904720800619 391.22373715725575 1497.551868274135 396.3139682853929L1497.551868274135 396.3139682853929Q1497.1399420556727 399.69764793704474 1496.6985925358922 404.16998973748895Q1496.28666631743 408.61290823661443 1496.168973112155 413.05582673573997Q1496.0807032081993 417.49874523486545 1496.0807032081993 421.32377440629796L1496.0807032081993 421.32377440629796Q1494.1681886224828 421.94166373399094 1490.872778874787 422.5889763630026Q1487.6067924284102 423.23628899201424 1483.9877263662083 423.23628899201424L1483.9877263662083 423.23628899201424Q1483.5758001477466 413.05582673573997 1480.7217399198316 409.87811019331906Q1477.8382563905975 406.70039365089815 1473.6013010007032 406.70039365089815L1473.6013010007032 406.70039365089815Q1470.0116582398205 406.70039365089815 1465.774702849926 410.81965583551784Q1461.5377474600314 414.96834132145625 1458.5659940268415 421.73570062475994Q1455.5942405936516 428.53248322938236 1455.5942405936516 436.77100759862174L1455.5942405936516 436.77100759862174ZM1455.5942405936516 398.63840908957116L1436.5279413391263 442.9204775742325L1436.5279413391263 419.41125982058173Q1436.5279413391263 414.32102869244454 1435.4687024916525 411.1433121500237Q1434.4094636441791 407.9655956076028 1431.025783992527 406.2884674324362Q1427.6421043408754 404.58191595595093 1420.639358627022 404.37595284671994L1420.639358627022 404.37595284671994Q1420.639358627022 402.05151204254173 1421.0807081468026 400.13899745682545Q1421.4926343652646 398.22648287110917 1422.5518732127382 396.5199313946239L1422.5518732127382 396.5199313946239Q1429.113269406811 396.1080051761619 1437.5871801865999 393.9895274812146Q1446.061090966389 391.8710497862674 1450.9453589852951 389.3406458728582L1450.9453589852951 389.3406458728582Q1452.8578735710114 389.9585352005511 1454.2407687329908 391.98874299154227Q1455.5942405936516 393.9895274812146 1455.5942405936516 398.63840908957116L1455.5942405936516 398.63840908957116ZM1576.9947818346568 396.75531780517355L1576.9947818346568 396.75531780517355Q1576.788818725426 401.816125631992 1576.6711255201508 407.55366938914085Q1576.5828556161946 413.26178984497096 1577.4067080531186 418.7639471915701L1577.4067080531186 418.7639471915701Q1575.2882303581714 420.0585724495934 1572.5518633355314 420.6764617772863Q1569.7860730115722 421.32377440629796 1566.8143195783823 421.32377440629796L1566.8143195783823 421.32377440629796Q1566.4023933599206 415.3802675399182 1563.3423700227745 410.08407330255005Q1560.2529233843097 404.7878790651819 1555.1626922561727 401.40419941353Q1550.101884429354 398.0205197618782 1543.0991387155007 398.0205197618782L1543.0991387155007 398.0205197618782Q1536.5377425214278 398.0205197618782 1532.624443446039 401.1982363042991Q1528.6817210693318 404.37595284671994 1528.6817210693318 409.67214708408807L1528.6817210693318 409.67214708408807Q1528.6817210693318 413.26178984497096 1530.2705793405426 416.02758016892983Q1531.8594376117526 418.7639471915701 1537.2733250543956 421.8533938300348Q1542.6872124970387 424.91341716718085 1553.8974902994678 429.35633566630634L1553.8974902994678 429.35633566630634Q1565.3431545124467 433.5932910562008 1571.9045507065196 437.8302464460953Q1578.4659469005924 442.06720183598986 1581.2317372245511 447.363396073358Q1583.9975275485103 452.6595903107261 1583.9975275485103 460.30964865359124L1583.9975275485103 460.30964865359124Q1583.9975275485103 469.1954856518422 1578.907296420373 475.9628449551459Q1573.8170652922358 482.7596275597684 1565.0194981979412 486.4669635259261Q1556.221931103646 490.1742994920838 1545.217616410448 490.1742994920838L1545.217616410448 490.1742994920838Q1532.5067502407646 490.1742994920838 1524.9743851031742 488.14409170109263Q1517.4714432669025 486.1433072114203 1510.2627344438183 482.3182780399877L1510.2627344438183 482.3182780399877Q1510.67466066228 478.93459838833587 1510.792353867555 474.07975367074835Q1510.91004707283 469.1954856518422 1510.91004707283 464.31121763293606Q1510.91004707283 459.4563729153486 1510.4686975530492 456.0726932636967L1510.4686975530492 456.0726932636967Q1512.1752490295344 454.7780680056734 1515.2352723666804 454.2484485819366Q1518.3247190051452 453.71882915819975 1521.5024355475662 453.71882915819975L1521.5024355475662 453.71882915819975Q1523.1795637227328 467.07700795689493 1529.7409599168054 473.6384041509677Q1536.331779412197 480.19980034504044 1547.3360941053952 480.19980034504044L1547.3360941053952 480.19980034504044Q1556.0159679944152 480.19980034504044 1560.7825428080466 476.4041944749266Q1565.5491176216779 472.57916530349405 1565.5491176216779 466.66508173843295L1565.5491176216779 466.66508173843295Q1565.5491176216779 462.84005256700044 1563.7542962412363 460.0742622430415Q1561.959474860795 457.3378952204013 1557.0752068418888 454.5721048964424Q1552.2203621243016 451.8357378738022 1542.6872124970387 448.01070870236964L1542.6872124970387 448.01070870236964Q1531.2415482840597 443.36182709401317 1524.356495775481 439.33083481334967Q1517.4714432669025 435.2998425326861 1514.381996628438 429.797685186087Q1511.3219732912921 424.2955278394879 1511.3219732912921 415.82161705969884L1511.3219732912921 415.82161705969884Q1511.3219732912921 409.0248344550764 1514.7056529429437 404.0522965322141Q1518.0893325945956 399.0797586093518 1523.5032200372386 395.7843488616561Q1528.9171074798815 392.51836241527906 1535.0371541541735 390.92950414406863Q1541.1866241297844 389.3406458728582 1546.4828183671525 389.3406458728582L1546.4828183671525 389.3406458728582Q1556.0159679944152 389.3406458728582 1563.2246768174996 391.22373715725575Q1570.433385640584 393.13625174297204 1576.9947818346568 396.75531780517355Z " fill="#ddaa88" transform="matrix(0.5523998554985274,0,0,0.5523998554985273,0,70.65780400807321)"/></g></svg>